<?xml version="1.0" encoding="utf-8"?>
<svg width="800px" height="800px" viewBox="0 0 800 800" version="1.1" xmlns:xlink="http://www.w3.org/1999/xlink" xmlns="http://www.w3.org/2000/svg">
  <defs>
    <path d="M800 0L800 0L800 800L0 800L0 0L800 0Z" id="path_1" />
    <clipPath id="clip_1">
      <use xlink:href="#path_1" clip-rule="evenodd" fill-rule="evenodd" />
    </clipPath>
  </defs>
  <g id="cogwheel-outline-svgrepo-com">
    <path d="M800 0L800 0L800 800L0 800L0 0L800 0Z" id="cogwheel-outline-svgrepo-com" fill="none" stroke="none" />
    <path d="M432.438 799.86L367.269 799.86C342.599 799.86 322.555 779.816 322.555 755.147L322.555 675.793C298.297 669.009 275.066 659.038 253.377 646.088L202.188 696.865C193.759 705.192 182.555 709.817 170.734 709.817C158.708 709.817 147.401 705.088 138.972 696.66L93.025 650.405C75.6535 632.93 75.7562 604.559 93.2305 587.189L146.681 534.148C137.122 516.057 129.413 497.041 123.965 477.408L44.7136 477.408C20.044 477.305 0 457.261 0 432.592L0 367.423C0 342.753 20.044 322.709 44.7136 322.709L124.068 322.709C130.852 298.451 140.822 275.323 153.774 253.532L94.8752 194.119C77.5036 176.645 77.6064 148.275 95.1835 130.903L141.439 84.9559C149.868 76.6299 160.969 72.0044 172.893 72.0044C184.919 72.0044 196.226 76.7327 204.655 85.1615L265.815 146.836C283.906 137.173 303.025 129.567 322.658 124.119L322.658 44.8678C322.658 20.1982 342.702 0.154192 367.371 0.154192L432.54 0.154192C457.21 0.154192 477.254 20.1982 477.254 44.8678L477.254 124.222C497.606 129.875 517.342 137.893 536.05 148.069L597.724 86.9089C606.153 78.5829 617.254 73.9574 629.177 73.9574C641.204 73.9574 652.511 78.6857 660.94 87.1145L706.887 133.37C715.316 141.799 719.838 153.106 719.838 165.029C719.838 176.953 715.11 188.157 706.681 196.586L647.371 255.485C659.81 276.659 669.368 299.273 675.947 322.812L755.301 322.812C779.97 322.812 800.014 342.856 800.014 367.526L800.014 432.592C800.014 457.261 779.97 477.305 755.301 477.305L675.947 477.305C670.294 497.658 662.276 517.393 652.101 536.101L705.14 589.552C713.569 597.981 718.092 609.288 718.092 621.211C718.092 633.135 713.364 644.339 704.935 652.768L658.679 698.715C650.25 707.041 639.149 711.667 627.226 711.667C615.199 711.667 603.892 706.938 595.463 698.509L544.788 647.423C523.613 659.86 501.102 669.42 477.563 675.998L477.563 755.352C477.151 779.816 457.107 799.86 432.438 799.86L432.438 799.86ZM250.396 620.286L257.283 624.603C281.439 639.919 307.65 651.226 335.198 658.114L342.907 660.066L342.907 755.147C342.907 768.613 353.804 779.508 367.269 779.508L432.438 779.508C445.903 779.508 456.799 768.612 456.799 755.147L456.799 660.066L464.508 658.114C491.336 651.433 516.931 640.536 540.573 625.735L547.458 621.418L609.545 684.016C614.17 688.642 620.235 691.211 626.813 691.211C633.289 691.211 639.354 688.745 643.979 684.222L690.235 638.274C694.86 633.753 697.327 627.585 697.43 621.11C697.43 614.531 694.963 608.465 690.44 603.84L626.505 539.493L630.411 532.812C642.746 511.329 652.101 488.509 657.959 464.765L659.912 457.056L754.992 457.056C768.458 457.056 779.354 446.16 779.354 432.694L779.354 367.526C779.354 354.06 768.457 343.164 754.992 343.164L659.912 343.164L657.959 335.455C651.277 308.627 640.382 282.929 625.58 259.288L621.264 252.401L691.983 182.195C696.609 177.672 699.075 171.505 699.179 165.029C699.179 158.451 696.712 152.386 692.189 147.761L646.242 101.505C641.616 96.8795 635.552 94.3098 628.973 94.3098C622.496 94.3098 616.433 96.7767 611.807 101.299L539.236 173.355L532.555 169.449C511.175 157.114 488.252 147.863 464.509 141.902L456.8 139.949L456.8 44.8678C456.8 31.4023 445.903 20.5066 432.439 20.5066L367.27 20.5066C353.804 20.5066 342.908 31.4023 342.908 44.8678L342.908 139.949L335.199 141.902C312.071 147.658 289.869 156.601 268.9 168.421L262.115 172.225L190.162 99.5521C185.537 94.9265 179.472 92.3568 172.894 92.3568C166.418 92.3568 160.353 94.8237 155.728 99.3465L109.472 145.294C99.9128 154.75 99.9128 170.169 109.37 179.728L179.678 250.551L175.361 257.438C160.045 281.593 148.738 307.805 141.851 335.25L139.898 342.959L44.7136 342.959C31.2482 342.959 20.3524 353.855 20.3524 367.32L20.3524 432.592C20.3524 446.057 31.2482 456.953 44.7136 456.953L139.794 456.953L141.747 464.662C147.504 487.79 156.446 509.993 168.267 530.858L172.07 537.643L107.621 601.578C98.0616 611.034 98.0616 626.453 107.518 636.013L153.465 682.269C158.091 686.894 164.156 689.464 170.734 689.464C177.21 689.464 183.275 686.997 187.9 682.473L250.396 620.286L250.396 620.286ZM399.849 552.44C315.766 552.44 247.308 483.982 247.308 399.901C247.308 315.819 315.766 247.463 399.849 247.463C483.931 247.463 552.389 315.922 552.389 400.004C552.389 484.086 483.931 552.44 399.849 552.44L399.849 552.44ZM399.849 267.815C326.97 267.815 267.661 327.125 267.661 400.003C267.661 472.881 326.97 532.088 399.849 532.088C472.727 532.088 532.036 472.778 532.036 399.9C532.036 327.022 472.727 267.815 399.849 267.815L399.849 267.815Z" id="Group" fill="#1565C0" fill-rule="evenodd" stroke="none" clip-path="url(#clip_1)" />
  </g>
</svg>